<?xml version="1.0" encoding="UTF-8" standalone="no"?>
<svg width="120" height="120" viewBox="0 0 120 120" fill="none" xmlns="http://www.w3.org/2000/svg">
  <circle cx="60" cy="60" r="58" fill="#f8fafc" stroke="#4f46e5" stroke-width="4"/>
  <g transform="translate(20, 30)">
    <path d="M38.5,0 L56,10 L56,30 L38.5,40 L21,30 L21,10 L38.5,0 Z" fill="#4f46e5" />
    <path d="M10.5,20 L28,30 L28,50 L10.5,60 L-7,50 L-7,30 L10.5,20 Z" fill="#4338ca" />
    <path d="M66.5,20 L84,30 L84,50 L66.5,60 L49,50 L49,30 L66.5,20 Z" fill="#4338ca" />
    <circle cx="38.5" cy="30" r="5" fill="#ffffff" />
    <circle cx="10.5" cy="50" r="5" fill="#ffffff" />
    <circle cx="66.5" cy="50" r="5" fill="#ffffff" />
    <line x1="38.5" y1="30" x2="10.5" y2="50" stroke="#ffffff" stroke-width="2" />
    <line x1="38.5" y1="30" x2="66.5" y2="50" stroke="#ffffff" stroke-width="2" />
  </g>
</svg>